# xmcd
#
# Track frame offsets: 
#        150
#        10326
#        22357
#        34701
#        49033
#        63215
#        80347
#        96663
#        107904
#        120170
#        130173
#        142946
#        152076
#        178814
#        201317
#        211658
#        223227
#        238094
#
# Disc length: 3395 seconds
#
# Revision: 6
# Processed by: cddbd v1.5.2PL0 Copyright (c) Steve Scherf et al.
# Submitted via: ExactAudioCopyFreeDBPlugin 1.0
#
DISCID=020d4112
DTITLE=Various Artist - Jazzclub Trends - Jazz Swings Pop
DYEAR=2006
DGENRE=Jazz
TTITLE0=Quincy Jones - Hang On Sloopy
TTITLE1=Les McCann - Sunny
TTITLE2=Willie Bobo - Knock On Wood
TTITLE3=Wes Montgomery - California Dreaming
TTITLE4=Count Basie and His Orchestra Feat. Bill Henderson - Yesterday
TTITLE5=The Amber Rock Association - Daydream
TTITLE6=Woody Herrman and His Thundering Herd - Light My Fire
TTITLE7=Horst Jankowski - Soulful Strut
TTITLE8=Oscar Peterson - Ode To Billy Joe
TTITLE9=Rita Reys - Can't Buy Me Love
TTITLE10=Mark Murphy - She Loves You
TTITLE11=Gary McFarland - Satisfaction
TTITLE12=Jimmy Smith - This Guy's In Love With You
TTITLE13=Jim Hall - Up, Up And Away
TTITLE14=Paul Desmond - Ob-La-Di, Ob-La-Da
TTITLE15=Stan Getz - Blowin' In The Wind
TTITLE16=Chet Baker - Spinning Wheel
TTITLE17=Kurt Edelhagen and His Orchestra - Mac Arthur Park
EXTD=YEAR: 2006
EXTT0=
EXTT1=
EXTT2=
EXTT3=
EXTT4=
EXTT5=
EXTT6=
EXTT7=
EXTT8=
EXTT9=
EXTT10=
EXTT11=
EXTT12=
EXTT13=
EXTT14=
EXTT15=
EXTT16=
EXTT17=
PLAYORDER=
